<svg width="23" height="16" viewBox="0 0 23 16" fill="none" xmlns="http://www.w3.org/2000/svg">
<path d="M7.01887 7.00014H15.0189C15.1666 6.99917 15.3122 6.96548 15.4454 6.9015C15.5785 6.83753 15.6958 6.74486 15.7889 6.63014C15.8866 6.51767 15.958 6.38478 15.9978 6.24117C16.0376 6.09757 16.0448 5.94689 16.0189 5.80014L15.0189 0.800143C14.9721 0.570867 14.8464 0.365245 14.6637 0.21907C14.481 0.0728955 14.2528 -0.00457553 14.0189 0.000142404H8.01887C7.78492 -0.00457553 7.55673 0.0728955 7.37401 0.21907C7.19129 0.365245 7.06562 0.570867 7.01887 0.800143L6.01887 5.80014C5.99024 5.94541 5.99423 6.09522 6.03055 6.23875C6.06686 6.38229 6.1346 6.51597 6.22887 6.63014C6.32404 6.74749 6.44457 6.84174 6.58139 6.90583C6.71822 6.96991 6.86779 7.00216 7.01887 7.00014ZM8.83887 2.00014H13.1989L13.7989 5.00014H8.23887L8.83887 2.00014ZM21.0189 9.80014C20.9721 9.57087 20.8464 9.36524 20.6637 9.21907C20.481 9.0729 20.2528 8.99542 20.0189 9.00014H14.0189C13.7849 8.99542 13.5567 9.0729 13.374 9.21907C13.1913 9.36524 13.0656 9.57087 13.0189 9.80014L12.0189 14.8001C11.9902 14.9454 11.9942 15.0952 12.0305 15.2388C12.0669 15.3823 12.1346 15.516 12.2289 15.6301C12.324 15.7475 12.4446 15.8417 12.5814 15.9058C12.7182 15.9699 12.8678 16.0022 13.0189 16.0001H21.0189C21.1666 15.9992 21.3122 15.9655 21.4454 15.9015C21.5785 15.8375 21.6958 15.7449 21.7889 15.6301C21.8866 15.5177 21.958 15.3848 21.9978 15.2412C22.0376 15.0976 22.0448 14.9469 22.0189 14.8001L21.0189 9.80014ZM14.2389 14.0001L14.8389 11.0001H19.1989L19.7989 14.0001H14.2389ZM8.01887 9.00014H2.01887C1.78492 8.99542 1.55673 9.0729 1.37401 9.21907C1.19129 9.36524 1.06562 9.57087 1.01887 9.80014L0.0188657 14.8001C-0.0097581 14.9454 -0.00576781 15.0952 0.0305485 15.2388C0.0668648 15.3823 0.134601 15.516 0.228866 15.6301C0.324039 15.7475 0.444566 15.8417 0.581393 15.9058C0.71822 15.9699 0.867789 16.0022 1.01887 16.0001H9.01887C9.16657 15.9992 9.31223 15.9655 9.44536 15.9015C9.5785 15.8375 9.69581 15.7449 9.78887 15.6301C9.88662 15.5177 9.95801 15.3848 9.9978 15.2412C10.0376 15.0976 10.0448 14.9469 10.0189 14.8001L9.01887 9.80014C8.97211 9.57087 8.84644 9.36524 8.66372 9.21907C8.481 9.0729 8.25281 8.99542 8.01887 9.00014ZM2.23887 14.0001L2.83887 11.0001H7.19887L7.79887 14.0001H2.23887Z" fill="white" fill-opacity="0.8"/>
</svg>
